# xmcd CD database file
#
# Track frame offsets:
#	150
#	11102
#	28923
#	44697
#	61088
#	73337
#	86509
#	106315
#	124293
#	138494
#	160449
#
# Disc length: 2409 seconds
#
# Revision: 0
# Processed by: cddbd v1.5.1PL0 Copyright (c) Steve Scherf et al.
# Submitted via: CDex 1.51
#
DISCID=a209670b
DTITLE=Garth Brooks - Ropin' the wind
DYEAR=1991
DGENRE=Country
TTITLE0=Against the grain
TTITLE1=Rodeo
TTITLE2=What she's doing now
TTITLE3=Burning bridges
TTITLE4=Which one of them
TTITLE5=Papa loved mama
TTITLE6=Shameless
TTITLE7=Cold Shoulder
TTITLE8=We bury the hatchet
TTITLE9=In lonesome dove
TTITLE10=The river
EXTD=YEAR: 1991
EXTT0=
EXTT1=
EXTT2=
EXTT3=
EXTT4=
EXTT5=
EXTT6=
EXTT7=
EXTT8=
EXTT9=
EXTT10=
PLAYORDER=
